<svg width="130" height="100" viewBox="0 0 130 100" fill="none" xmlns="http://www.w3.org/2000/svg">
<rect y="6" width="16" height="20" rx="4" fill="#E3E4E3"/>
<rect x="19" y="6" width="16" height="20" rx="4" fill="#E3E4E3"/>
<rect x="38" y="6" width="16" height="20" rx="4" fill="#E3E4E3"/>
<rect x="57" y="6" width="16" height="20" rx="4" fill="#E3E4E3"/>
<rect x="76" y="6" width="16" height="20" rx="4" fill="#E3E4E3"/>
<rect x="95" y="6" width="16" height="20" rx="4" fill="#E3E4E3"/>
<rect x="114" y="6" width="16" height="20" rx="4" fill="#E3E4E3"/>
<rect y="29" width="16" height="20" rx="4" fill="#E3E4E3"/>
<rect x="19" y="29" width="16" height="20" rx="4" fill="#E3E4E3"/>
<rect x="38" y="29" width="16" height="20" rx="4" fill="#D9F99D"/>
<rect x="57" y="29" width="16" height="20" rx="4" fill="#D9F99D"/>
<rect x="76" y="29" width="16" height="20" rx="4" fill="#84CC16"/>
<rect x="95" y="29" width="16" height="20" rx="4" fill="#84CC16"/>
<rect x="114" y="29" width="16" height="20" rx="4" fill="#84CC16"/>
<rect y="52" width="16" height="20" rx="4" fill="#BEF264"/>
<rect x="19" y="52" width="16" height="20" rx="4" fill="#BEF264"/>
<rect x="38" y="52" width="16" height="20" rx="4" fill="#84CC16"/>
<rect x="57" y="52" width="16" height="20" rx="4" fill="#84CC16"/>
<rect x="76" y="52" width="16" height="20" rx="4" fill="#84CC16"/>
<rect x="95" y="52" width="16" height="20" rx="4" fill="#BEF264"/>
<rect x="114" y="52" width="16" height="20" rx="4" fill="#BEF264"/>
<rect y="75" width="16" height="20" rx="4" fill="#D9F99D"/>
<rect x="19" y="75" width="16" height="20" rx="4" fill="#D9F99D"/>
<rect x="38" y="75" width="16" height="20" rx="4" fill="#E3E4E3"/>
<rect x="57" y="75" width="16" height="20" rx="4" fill="#E3E4E3"/>
<rect x="76" y="75" width="16" height="20" rx="4" fill="#E3E4E3"/>
<rect x="95" y="75" width="16" height="20" rx="4" fill="#E3E4E3"/>
<rect x="114" y="75" width="16" height="20" rx="4" fill="#E3E4E3"/>
</svg>
