<svg width="463" height="787" viewBox="0 0 463 787" fill="none" xmlns="http://www.w3.org/2000/svg">
<path d="M1.26881 180.483H3.82578L3.82578 216.395H1.26881C0.793534 216.395 0.403809 216.005 0.403809 215.53L0.403809 181.348C0.403809 180.873 0.793534 180.483 1.26881 180.483Z" fill="#C5C8C6"/>
<path d="M380.168 1.00005L82.2465 1.00005C38.9361 1.00005 3.82617 36.11 3.82617 79.4204L3.82617 861.58C3.82617 904.89 38.9361 940 82.2465 940H380.168C423.478 940 458.588 904.89 458.588 861.58L458.588 79.4204C458.588 36.11 423.478 1.00005 380.168 1.00005Z" fill="white" stroke="#E3E4E3" stroke-width="0.950549" stroke-miterlimit="10"/>
<path d="M379.036 6.15196L83.3773 6.15196C42.5396 6.15196 9.43408 39.2575 9.43408 80.0952L9.43408 859.622C9.43408 900.459 42.5396 933.565 83.3773 933.565H379.036C419.874 933.565 452.979 900.459 452.979 859.622L452.979 80.0952C452.979 39.2575 419.874 6.15196 379.036 6.15196Z" fill="white" stroke="#E3E4E3" stroke-width="0.950549" stroke-miterlimit="10"/>
<path d="M380.433 20.0396L81.9895 20.0396C49.8401 20.0396 23.7778 46.1018 23.7778 78.2512L23.7778 861.466C23.7778 893.615 49.8401 919.677 81.9895 919.677H380.433C412.583 919.677 438.645 893.615 438.645 861.466L438.645 78.2512C438.645 46.1018 412.583 20.0396 380.433 20.0396Z" fill="#C5C8C6"/>
<path d="M3.83553 180.483H1.26904L1.26904 216.394H3.83553L3.83553 180.483Z" fill="#E3E4E3"/>
<path d="M1.26881 248.685H3.82578L3.82578 319.748H1.26881C0.793534 319.748 0.403809 319.358 0.403809 318.883L0.403809 249.54C0.403809 249.065 0.793534 248.685 1.26881 248.685Z" fill="#C5C8C6"/>
<path d="M3.83553 248.685H1.26904L1.26904 319.748H3.83553L3.83553 248.685Z" fill="#E3E4E3"/>
<path d="M1.26881 339.282H3.82578L3.82578 410.345H1.26881C0.793534 410.354 0.403809 409.964 0.403809 409.489L0.403809 340.147C0.403809 339.671 0.793534 339.282 1.26881 339.282Z" fill="#C5C8C6"/>
<path d="M3.83553 339.282H1.26904L1.26904 410.345H3.83553L3.83553 339.282Z" fill="#E3E4E3"/>
<path opacity="0.48" d="M379.046 6.15202L83.3773 6.15202C42.5417 6.15202 9.43408 39.2501 9.43408 80.0857L9.43408 859.622C9.43408 900.457 42.5417 933.565 83.3773 933.565H379.046C419.881 933.565 452.989 900.457 452.989 859.622L452.989 80.0857C452.989 39.2501 419.881 6.14252 379.046 6.14252V6.15202ZM449.187 860.173C449.187 898.366 418.227 929.326 380.034 929.326H82.3792C44.1862 929.326 13.2268 898.366 13.2268 860.173L13.2268 79.5439C13.2363 41.3604 44.1957 10.401 82.3792 10.401L380.044 10.401C418.237 10.401 449.196 41.3604 449.196 79.5534L449.196 860.164L449.187 860.173Z" fill="#C5C8C6"/>
<path d="M461.164 410.307H458.597V297.742H461.164C461.639 297.742 462.029 298.132 462.029 298.608V409.442C462.029 409.917 461.639 410.307 461.164 410.307Z" fill="#C5C8C6"/>
<path d="M458.588 410.307H461.154V297.742H458.588V410.307Z" fill="#E3E4E3"/>
</svg>
